PathFileType	4	(X/Y/Z)	C:\Users\ebm\Documents\Erivelton\Erivelton\propulsion3.trc
DataRate	CameraRate	NumFrames	NumMarkers	Units	OrigDataRate	OrigDataStartFrame	OrigNumFrames
150.00	150.00	       6	28	mm	150.00	748	       997
Frame#	Time	IJ			PX			C7			T8			RAC			RAS			RPS			RAI			RPI			RLE			RME			RRS			RUS			R3M			R5M			LAC			LAS			LPS			LAI			LPI			LLE			LME			LRS			LUS			L3M			L5M			RW			LW			V_mid_elbow_r			V_mid_elbow_l			V_mid_wrist_r			V_mid_wrist_l			V_mid_trunk_low			V_mid_trunk_upp			
		X1	Y1	Z1	X2	Y2	Z2	X3	Y3	Z3	X4	Y4	Z4	X5	Y5	Z5	X6	Y6	Z6	X7	Y7	Z7	X8	Y8	Z8	X9	Y9	Z9	X10	Y10	Z10	X11	Y11	Z11	X12	Y12	Z12	X13	Y13	Z13	X14	Y14	Z14	X15	Y15	Z15	X16	Y16	Z16	X17	Y17	Z17	X18	Y18	Z18	X19	Y19	Z19	X20	Y20	Z20	X21	Y21	Z21	X22	Y22	Z22	X23	Y23	Z23	X24	Y24	Z24	X25	Y25	Z25	X26	Y26	Z26	X27	Y27	Z27	X28	Y28	Z28	

748	4.980	3192.38477	1014.54401	-62.65370	3181.10156	840.33960	-60.46586	3081.99927	1129.64404	-64.19797	2971.69873	951.17981	-67.40987	3118.90405	1064.32825	127.75186	3097.52026	893.15240	193.21127	3060.30420	922.89771	217.61772	3063.65991	825.56183	223.72632	3030.46118	856.05762	246.41098	2983.55249	786.36066	273.14249	2951.16235	759.85529	198.57269	3188.96021	610.26147	225.07205	3153.90869	597.52106	269.89465	3227.29077	527.57739	272.72461	3188.41748	526.04333	282.44138	3094.92603	1065.03308	-259.87549	3066.98608	915.74634	-356.73151	3021.45166	932.35645	-356.45486	3049.53149	847.56830	-396.21051	2997.34546	864.12872	-398.01639	3002.89185	793.20569	-428.08310	2957.49854	766.86658	-361.06485	3178.61133	610.74176	-332.32059	3151.83472	580.34717	-394.27234	3231.23047	543.13177	-394.62381	3187.79639	527.21887	-403.46985	3098.68164	303.72134	249.88603	3113.77441	302.83264	-378.44370	
749	4.987	3200.97925	1014.66309	-62.14890	3189.44824	840.29150	-60.07242	3090.48779	1129.68079	-63.45897	2980.15308	951.35840	-66.71984	3127.75757	1063.48608	128.56717	3109.45679	891.70923	193.46176	3071.98047	920.73859	218.38748	3076.92358	823.42719	224.01886	3043.62134	853.44513	247.22618	2998.09375	782.69781	273.95377	2965.43433	755.97192	199.85226	3205.09473	607.67871	225.82097	3169.93750	595.31183	270.46869	3241.82422	523.63208	273.34152	3203.10205	523.45172	283.09805	3103.73682	1064.22400	-259.74597	3078.82275	913.89777	-356.53580	3033.17285	929.96948	-356.67877	3061.98242	845.19464	-396.17160	3010.21851	861.22760	-398.19098	3017.04321	790.39801	-427.99139	2971.47900	763.56158	-361.62476	3194.53442	609.12756	-332.40958	3167.00366	578.71814	-394.43073	3244.49829	537.96899	-394.05405	3201.84741	524.89001	-403.08441	3106.94556	303.50250	250.17090	3122.04175	302.67880	-378.13940	
750	4.993	3209.46338	1014.75793	-61.63661	3197.85913	840.19690	-59.67572	3099.03003	1129.65320	-62.84525	2988.70313	951.46985	-66.10789	3137.28516	1062.89026	129.36058	3121.46265	890.25330	193.60187	3083.80347	918.61444	219.09103	3090.40918	821.67615	224.42323	3056.68286	850.71326	247.91115	3012.75220	779.01520	274.66641	2979.96680	751.94574	200.91945	3221.21216	604.89093	226.55052	3185.79639	592.83984	271.02374	3256.45093	519.64276	273.79843	3217.75903	520.25287	283.54953	3112.70630	1063.45544	-259.62137	3090.83276	912.09991	-356.03915	3044.95435	927.55225	-356.81482	3075.20044	843.04047	-395.70352	3023.25024	858.33698	-398.29065	3031.48340	787.44000	-427.74774	2985.88452	759.58661	-361.88632	3210.53784	607.27209	-332.44037	3182.30566	576.80206	-394.25922	3258.83667	534.37347	-393.61713	3215.75806	522.19061	-402.23361	3115.31885	303.26108	250.44649	3130.22363	302.64981	-377.94321	
751	5.000	3217.95728	1014.84515	-61.13613	3206.38574	840.25085	-59.20308	3107.51563	1129.59827	-62.22044	2997.19604	951.62280	-65.44446	3146.54517	1062.01099	130.16020	3133.35571	888.80585	193.76643	3095.44824	916.31873	219.71501	3103.85986	819.63379	224.67216	3069.88306	848.03571	248.52617	3027.41309	775.41162	275.20007	2994.24756	747.71576	201.76219	3237.36938	601.88049	227.16653	3201.51953	590.11475	271.61108	3271.00488	515.45343	274.30963	3232.43604	517.21045	284.23746	3121.82520	1062.64172	-259.55136	3102.69067	910.20868	-355.52258	3056.58374	924.97064	-356.76093	3088.37524	840.79077	-395.16125	3036.25464	855.28741	-398.14484	3045.91797	784.53333	-427.27798	2999.76270	756.38354	-362.09479	3226.41992	605.12634	-332.40170	3197.59473	574.69220	-394.08734	3273.43115	530.04346	-392.24255	3230.00342	519.61877	-401.91373	3123.61426	303.10831	250.68634	3138.29224	302.73871	-377.85196	
752	5.007	3226.53271	1014.85394	-60.56864	3214.96826	840.15729	-58.65965	3116.00781	1129.48071	-61.56495	3005.64453	951.69360	-64.79964	3155.51709	1060.74658	130.82150	3145.15430	887.36621	193.47951	3106.98120	913.38281	220.42195	3117.48535	817.64978	224.71133	3083.22412	845.44568	249.10231	3042.32202	771.57886	275.63226	3009.37231	743.37701	202.36098	3253.41431	598.65576	227.65382	3217.42188	587.33588	272.12439	3285.57690	511.29221	274.76138	3247.11743	514.09436	284.96207	3130.75659	1061.73450	-259.40497	3114.47290	908.33875	-354.95667	3068.16333	922.29932	-356.58771	3101.83423	838.55371	-394.28055	3049.50391	852.12744	-397.86243	3060.17798	781.60107	-426.66339	3014.15869	752.85309	-362.00580	3242.23218	602.75726	-332.23676	3212.93604	572.54309	-393.89624	3287.78882	526.01416	-392.00562	3243.93335	516.96320	-401.58347	3131.96948	302.94962	250.98141	3146.28589	302.89526	-377.82205	
753	5.013	3235.11011	1014.87305	-60.07219	3223.30200	839.89697	-58.40691	3124.35571	1129.32117	-60.85851	3014.05566	951.68866	-64.19937	3164.59204	1060.03467	131.74791	3157.42871	886.23944	193.64374	3118.79639	911.11023	220.89497	3131.25732	815.54907	224.65927	3096.68262	842.64600	249.50880	3057.31372	767.78503	275.90134	3024.26929	739.47040	203.07582	3269.40942	595.22107	228.05600	3233.13354	584.37469	272.66525	3299.90869	506.75745	274.91934	3261.85132	510.86200	285.78970	3139.95288	1060.92468	-259.33630	3127.08887	906.35638	-354.25793	3079.67847	919.57971	-356.36450	3115.12500	836.28387	-393.43259	3063.08765	848.92804	-397.39423	3074.69507	778.64233	-426.06293	3028.68945	749.19836	-361.65775	3257.90991	600.23187	-331.96017	3228.26245	570.35608	-393.68130	3301.95435	522.16174	-391.58368	3258.00220	514.16113	-401.31897	3140.24976	302.78836	251.29994	3154.24316	303.06927	-377.80994	
